<svg width="154" height="124" viewBox="0 0 154 124" fill="none" xmlns="http://www.w3.org/2000/svg">
<rect x="37.6545" y="0.201402" width="78.1439" height="73.7131" rx="7.85467" fill="#1C2854"/>
<rect x="37.6545" y="0.201402" width="78.1439" height="73.7131" rx="7.85467" stroke="white" stroke-width="0.402804"/>
<path d="M68.9186 31.491C69.2255 31.6137 70.6676 32.166 72.5393 32.9331L73.1222 18.4813C73.1222 18.4199 73.1529 18.3279 73.2143 18.2972L75.8224 15.7198C75.8837 15.6585 75.9451 15.6278 76.0372 15.6278H76.2519C76.344 15.6278 76.4054 15.6585 76.4667 15.7198C76.5281 15.7812 76.5588 15.8426 76.5588 15.9346V16.4562H77.4486V15.9346C77.4486 15.8426 77.4793 15.7812 77.5406 15.7198C77.602 15.6585 77.6634 15.6278 77.7554 15.6278H77.9702C78.0622 15.6278 78.1236 15.6585 78.185 15.7198L80.7931 18.2972C80.8544 18.3586 80.8851 18.4199 80.8851 18.4813L81.5601 35.756C82.0818 35.9707 82.6034 36.2162 82.6647 36.2469C82.6954 36.2469 82.7875 36.2776 82.9102 36.2162C83.217 36.0014 85.7024 34.2832 86.9604 33.3934H86.9911C87.0524 33.3627 87.6968 32.9638 88.4945 33.2706C88.7707 33.3934 93.005 35.173 96.4108 36.6151V19.2177C96.4108 18.7575 96.3188 18.3279 96.1347 17.8983C96.104 17.837 96.0733 17.7756 96.0426 17.7142C95.9813 17.5915 95.9199 17.4994 95.8278 17.4074C95.7665 17.3153 95.7051 17.254 95.6437 17.1926C95.5517 17.0699 95.429 16.9778 95.3369 16.8858C95.1528 16.7324 94.9687 16.6096 94.7846 16.5176C94.7232 16.4869 94.6619 16.4562 94.5698 16.4255C94.5085 16.3949 94.2937 16.3028 93.9255 16.1494C93.7721 16.088 93.588 16.0267 93.4039 15.9346C93.3118 15.9039 93.1891 15.8426 93.097 15.8119C92.8822 15.7198 92.6368 15.6278 92.3606 15.5357C91.9617 15.3823 91.5015 15.2596 91.0106 15.1062C90.5503 14.9527 90.0287 14.83 89.5071 14.6766C89.2616 14.6152 89.0162 14.5539 88.7707 14.4925C87.3286 14.1243 85.6717 13.7561 83.8307 13.5106C81.7442 13.2038 79.4123 12.989 76.927 12.989C74.4416 12.989 72.1404 13.2038 70.0232 13.5106C68.1823 13.7868 66.5254 14.1243 65.0832 14.4925C64.8685 14.5539 64.6844 14.5845 64.4696 14.6459C62.69 15.1062 61.3092 15.5971 60.3887 15.9346C60.0819 16.0573 59.8364 16.1494 59.6523 16.2108C59.4068 16.3028 59.2534 16.3949 59.2228 16.3949C59.008 16.4869 58.8239 16.6096 58.6398 16.7324C58.5784 16.7631 58.517 16.8244 58.4557 16.8858C58.2716 17.0392 58.1488 17.1926 57.9954 17.3767C57.9034 17.4994 57.8113 17.6222 57.75 17.7449C57.5045 18.2052 57.3511 18.7268 57.3511 19.2484V38.4254L66.5254 31.8285C66.8629 31.491 67.7834 31.0614 68.9186 31.491Z" fill="#1C2854"/>
<path d="M81.9281 45.8816C80.578 45.7589 79.1666 45.6975 77.7552 45.6975C77.7245 45.6975 77.7245 45.6975 77.6938 45.6975C77.2029 45.6975 76.7426 45.6975 76.2517 45.7282C74.8096 45.7589 73.3982 45.8816 72.0174 46.0043C67.2308 46.526 62.9352 47.6919 59.7441 49.2568C60.0817 49.3795 60.4192 49.5022 60.7874 49.6556C61.5851 49.9625 62.4749 50.3 63.5182 50.5761C63.7943 50.6375 64.0705 50.7296 64.3466 50.7909C64.3773 49.2568 66.5251 48.7352 68.1513 48.7352C69.3787 48.7352 70.4833 49.1647 71.772 49.6556C71.8026 49.6556 71.8333 49.6863 71.864 49.6863C72.6311 49.9932 73.4902 50.3 74.5028 50.5761C74.7789 50.6375 75.0551 50.7296 75.3312 50.7909C75.3619 50.1773 75.6994 49.717 76.2517 49.4102C76.6506 49.1647 77.1722 48.9806 77.6938 48.8886C78.1848 48.7965 78.6757 48.7352 79.1359 48.7352C80.1485 48.7352 81.069 49.0113 82.0508 49.3795C82.2656 49.4715 82.5111 49.5636 82.7566 49.6556C83.5543 49.9625 84.4441 50.3 85.4874 50.5761C85.7635 50.6375 86.0397 50.7296 86.3158 50.7909C86.3465 49.2568 88.4943 48.7352 90.1205 48.7352C91.3172 48.7352 92.3911 49.134 93.6184 49.625C93.6798 49.5636 93.7105 49.5022 93.7718 49.4409C93.8639 49.3181 93.9559 49.1647 94.048 49.042C94.14 48.9193 94.2014 48.7965 94.2934 48.6738C90.949 47.2624 86.6533 46.2805 81.9281 45.8816Z" fill="#D55F36"/>
<path d="M97.6062 36.6459V38.0574V41.8928C97.6062 43.9179 97.0846 45.9736 96.0721 47.968C95.9187 48.3056 95.7346 48.6124 95.5811 48.8885L95.5198 48.9806C95.4891 49.042 95.4584 49.1033 95.397 49.1647C95.3664 49.1954 95.3664 49.2261 95.3664 49.2261C95.1823 49.5329 94.9982 49.809 94.8141 50.0852C94.6913 50.2386 94.5686 50.4227 94.4459 50.5761L94.3538 50.6989C94.139 51.0057 93.8936 51.2818 93.6481 51.5887L93.5254 51.7421C93.4333 51.8648 93.3106 51.9875 93.2185 52.141C92.9731 52.4478 92.6662 52.7239 92.3901 53.0308C91.3469 54.1047 90.1195 55.2093 88.7081 56.2832C88.3706 56.5287 88.0331 56.8048 87.6956 57.0503L87.6342 57.1116C83.2158 60.3334 78.8281 62.2971 78.644 62.3892C78.0917 62.6346 77.478 62.7574 76.8644 62.7574C76.2507 62.7574 75.637 62.6346 75.0848 62.3892C74.962 62.3278 71.6789 60.8857 67.9356 58.4003C67.3526 58.0015 66.7696 57.6026 66.2173 57.2037L66.1866 57.173L66.0946 57.1116C65.7571 56.8662 65.4502 56.6207 65.1127 56.3752C64.6831 56.0377 64.2536 55.7002 63.8547 55.3934C62.9035 54.5956 61.983 53.7365 61.1546 52.8774C61.1239 52.8467 61.0932 52.816 61.0932 52.816C61.0318 52.7546 60.9705 52.6933 60.9398 52.6626C60.725 52.4171 60.5102 52.2023 60.3261 51.9569C60.0193 51.6194 59.7738 51.3125 59.559 51.0364C59.2829 50.6989 59.0374 50.3307 58.792 49.9625C58.5465 49.6249 58.3317 49.2567 58.1169 48.8885C58.0862 48.8579 58.0556 48.7965 58.0556 48.7658L58.0249 48.7351C56.7362 46.4953 56.0918 44.194 56.0918 41.8928V40.0518V38.4256V19.2179C56.0918 17.4996 57.1044 15.9654 58.6692 15.2597C59.0067 15.1063 66.7082 11.7005 76.8644 11.7005C87.0205 11.7005 94.7527 15.1063 95.0595 15.2597C96.6244 15.9654 97.6369 17.5303 97.6369 19.2179L97.6062 36.6459ZM95.5198 14.1551C95.1823 14.0017 87.2353 10.4731 76.803 10.4731C66.3707 10.4731 58.4238 14.0017 58.0862 14.1551C56.0918 15.0449 54.7725 17.07 54.7725 19.2485V38.4256V40.0518V41.8928C54.7725 44.4088 55.4782 46.8941 56.8589 49.3488L56.951 49.5329C57.1658 49.9011 57.4112 50.3 57.6567 50.6682C57.9021 51.067 58.1783 51.4352 58.4851 51.8034C58.7306 52.1103 58.9761 52.4171 59.2829 52.7853C59.4977 53.0308 59.7125 53.2762 59.9272 53.5217C59.9886 53.5831 60.05 53.6444 60.142 53.7365L60.1727 53.7672C61.0318 54.6877 61.983 55.5775 62.9649 56.3752C63.3638 56.7128 63.7933 57.0503 64.2536 57.4185C64.5911 57.6639 64.8979 57.9094 65.2354 58.1549L65.3275 58.2162L65.3582 58.2469C65.9105 58.6458 66.5241 59.0754 67.1071 59.4743C70.9425 61.9903 74.287 63.4938 74.4404 63.5551C75.1768 63.8619 75.9439 64.0461 76.7416 64.0461C77.5394 64.0461 78.3065 63.8926 79.0429 63.5551C79.227 63.4631 83.7374 61.4687 88.2785 58.1549C88.3092 58.1242 88.3399 58.0935 88.3706 58.0935C88.7081 57.848 89.0763 57.5719 89.4138 57.3264C90.8559 56.1912 92.1446 55.0559 93.2185 53.9513C93.5254 53.6444 93.8015 53.3069 94.0777 53.0001C94.2004 52.8774 94.3231 52.7239 94.4152 52.5705L94.5379 52.4171C94.7834 52.1103 95.0595 51.8034 95.2743 51.4659L95.3664 51.3432C95.4891 51.1591 95.6425 51.0057 95.7652 50.8216C95.9493 50.5454 96.1334 50.2386 96.3482 49.9318C96.3789 49.9011 96.3789 49.8704 96.4096 49.8397C96.4403 49.7783 96.5016 49.6863 96.5323 49.5942L96.563 49.5329C96.7471 49.2261 96.9312 48.8885 97.1153 48.5203C98.2199 46.3418 98.7722 44.102 98.7722 41.8928V38.0574V36.6459V19.2179C98.8336 17.0394 97.5449 15.0449 95.5198 14.1551Z" fill="#1C2854"/>
<path d="M95.0297 15.2594C94.6922 15.106 86.9907 11.7002 76.8346 11.7002C66.6784 11.7002 58.9462 15.106 58.6394 15.2594C57.0746 15.9652 56.062 17.53 56.062 19.2176V38.4253V40.0515V41.8925C56.062 44.1937 56.7064 46.495 57.9951 48.7348L58.0257 48.7655C58.0564 48.7962 58.0871 48.8576 58.0871 48.8883C58.3019 49.2565 58.5167 49.594 58.7621 49.9622C59.0076 50.3304 59.2531 50.6986 59.5292 51.0361C59.744 51.3122 59.9895 51.6191 60.2963 51.9566C60.5111 52.202 60.6952 52.4168 60.91 52.6623C60.9713 52.7237 61.002 52.785 61.0634 52.8157C61.0941 52.8464 61.1247 52.8771 61.1247 52.8771C61.9532 53.7669 62.8737 54.5953 63.8249 55.3931C64.1931 55.6999 64.6226 56.0374 65.0829 56.375C65.3897 56.6204 65.7272 56.8659 66.0647 57.1114L66.1568 57.1727L66.1875 57.2034C66.7398 57.6023 67.3228 58.0012 67.9057 58.4001C71.6491 60.8547 74.9015 62.3275 75.0549 62.3889C75.6072 62.6343 76.2209 62.7571 76.8346 62.7571C77.4482 62.7571 78.0619 62.6343 78.6142 62.3889C78.7983 62.2968 83.186 60.3331 87.6044 57.1114L87.6657 57.05C88.0339 56.7738 88.3714 56.5284 88.6783 56.2829C90.0897 55.209 91.317 54.1044 92.3603 53.0305C92.6364 52.7237 92.9432 52.4168 93.1887 52.1407C93.3114 52.0179 93.4035 51.8952 93.4955 51.7418L93.6183 51.5884C93.8637 51.2815 94.1092 51.0054 94.324 50.6986L94.416 50.5758C94.5388 50.4224 94.6615 50.2383 94.7842 50.0849C94.9683 49.8088 95.1524 49.5326 95.3365 49.2258C95.3365 49.2258 95.3672 49.1951 95.3672 49.1644C95.3979 49.103 95.4286 49.0417 95.4899 48.9496L95.5513 48.8576C95.7354 48.5507 95.8888 48.2746 96.0422 47.9371C97.0548 45.912 97.5764 43.8869 97.5764 41.8618V38.0264V36.615V19.1869C97.6071 17.53 96.5945 15.9652 95.0297 15.2594ZM92.6978 50.852C92.5444 51.0361 92.4216 51.1895 92.2682 51.3736C92.0227 51.6497 91.7466 51.9566 91.4704 52.2327C90.9488 52.7543 90.3965 53.276 89.8136 53.8283C89.3226 54.2578 88.8317 54.6567 88.3101 55.0863C88.1873 55.0249 88.0339 54.9942 87.9112 54.9328C86.6225 54.4419 85.5179 54.0124 84.2906 54.0124C82.695 54.0124 80.5472 54.534 80.4859 56.0681C80.2097 56.0068 79.9029 55.9454 79.6574 55.8533C78.6142 55.5772 77.7244 55.2397 76.9266 54.9022C75.6379 54.4112 74.5333 53.9817 73.306 53.9817C71.7105 53.9817 69.5626 54.5033 69.5013 56.0374C69.2251 55.9761 68.9183 55.9147 68.6728 55.8227C67.6296 55.5465 66.7398 55.209 65.942 54.8715C65.4204 54.6567 64.9295 54.4726 64.4385 54.3192C64.2544 54.1658 64.0703 54.0124 63.8862 53.8589C63.6715 53.6442 63.426 53.4601 63.2112 53.2453C62.7816 52.8464 62.3828 52.4475 61.9839 52.0179C61.9532 51.9873 61.9225 51.9566 61.8611 51.8952C61.8305 51.8645 61.7998 51.8338 61.7384 51.7725C61.5236 51.5577 61.3395 51.3429 61.1554 51.0974C61.0327 50.944 60.91 50.7906 60.7872 50.6679C60.7872 50.6679 60.7872 50.6372 60.7565 50.6372C60.7872 50.6372 60.7872 50.6372 60.8179 50.6679C62.2293 51.2202 63.8249 51.8338 65.5738 51.9873C65.5738 51.9873 66.0034 52.0179 66.2488 52.0179C66.8625 52.0179 67.3841 51.8338 67.6296 51.4656C67.8137 51.2202 67.8751 50.944 67.783 50.6679C67.7216 50.4531 67.5989 50.2997 67.4455 50.2076C67.2 50.0849 66.8318 50.0849 66.3102 50.2383C66.617 49.9929 67.108 49.686 68.0898 49.686C68.6421 49.686 69.2251 49.8088 69.8388 49.9929C70.4524 50.177 71.0968 50.4224 71.7718 50.6679C73.0912 51.1895 74.564 51.7418 76.1902 51.9566C76.3129 51.9566 76.4357 51.9873 76.5277 51.9873C76.5277 51.9873 76.9573 52.0179 77.2027 52.0179C77.3562 52.0179 77.4789 52.0179 77.6016 51.9873C78.0312 51.9259 78.3994 51.7418 78.5835 51.4656C78.7676 51.2202 78.829 50.944 78.7369 50.6679C78.6755 50.4531 78.5528 50.2997 78.3994 50.2076C78.2153 50.1156 77.9391 50.0849 77.5709 50.1463C77.4789 50.177 77.3562 50.177 77.2641 50.2383C77.3562 50.177 77.4482 50.0849 77.5709 50.0235C77.8778 49.8394 78.3073 49.686 79.0131 49.686C79.5654 49.686 80.1483 49.8088 80.762 49.9929C81.1609 50.1156 81.5598 50.2383 81.9586 50.3917L82.695 50.6679C84.1065 51.2202 85.702 51.8338 87.4509 51.9873C87.4509 51.9873 87.8805 52.0179 88.126 52.0179C88.7396 52.0179 89.2613 51.8338 89.5067 51.4656C89.6908 51.2202 89.7522 50.944 89.6601 50.6679C89.5988 50.4531 89.476 50.2997 89.3226 50.2076C89.0772 50.0849 88.709 50.0849 88.1873 50.2383C88.4942 49.9929 88.9851 49.686 89.9363 49.686C90.4886 49.686 91.0716 49.8088 91.6852 49.9929C92.0534 50.1156 92.4216 50.2383 92.8205 50.3917C92.9432 50.5758 92.8205 50.7293 92.6978 50.852ZM94.0478 49.0417C93.9558 49.1644 93.8637 49.3178 93.7717 49.4406C93.741 49.5019 93.6796 49.5633 93.6183 49.6247C92.3909 49.1644 91.317 48.7655 90.1204 48.7655C88.5249 48.7655 86.377 49.2871 86.3157 50.8213C86.0395 50.7599 85.7327 50.6986 85.4872 50.6065C84.444 50.3304 83.5542 49.9929 82.7564 49.6553C82.5109 49.5633 82.2962 49.4712 82.0507 49.3792C81.0382 49.011 80.1177 48.7348 79.1358 48.7348C78.6755 48.7348 78.1846 48.7655 77.6937 48.8883C77.1721 48.9803 76.6505 49.1644 76.2516 49.4099C75.73 49.7474 75.3618 50.177 75.3311 50.7906C75.0549 50.7293 74.7481 50.6679 74.5026 50.5758C73.4901 50.2997 72.6616 49.9929 71.8639 49.686C71.8332 49.686 71.8025 49.6553 71.7718 49.6553C70.4831 49.1644 69.3785 48.7348 68.1512 48.7348C66.5557 48.7348 64.4078 49.2565 64.3465 50.7906C64.0703 50.7293 63.7635 50.6679 63.518 50.5758C62.4748 50.2997 61.585 49.9622 60.7872 49.6247C60.419 49.5019 60.0815 49.3485 59.744 49.2258H59.7747C62.9657 47.6609 67.2307 46.495 72.048 45.9734C73.4287 45.8199 74.8401 45.7279 76.2823 45.6972C76.7732 45.6972 77.2334 45.6665 77.7244 45.6665H77.7857C79.1972 45.6665 80.6086 45.7279 81.9586 45.8506C86.6839 46.2188 90.9795 47.2314 94.324 48.6121C94.2319 48.7655 94.1399 48.8883 94.0478 49.0417ZM96.3491 36.6457C92.9432 35.1729 88.7396 33.3932 88.4328 33.3012C87.635 32.9944 86.9907 33.3932 86.9293 33.4239H86.8986C85.6406 34.3137 83.186 36.032 82.8485 36.2468C82.7564 36.3081 82.6337 36.2775 82.603 36.2775C82.5109 36.2468 82.02 36.0013 81.4984 35.7865L80.8234 18.5119C80.8234 18.4505 80.7927 18.3585 80.7313 18.3278L78.1232 15.7504C78.0619 15.689 78.0005 15.6583 77.9085 15.6583H77.6937C77.6016 15.6583 77.5403 15.689 77.4789 15.7504C77.4175 15.8117 77.3868 15.8731 77.3868 15.9652V16.4868H76.497V15.9652C76.497 15.8731 76.4664 15.8117 76.405 15.7504C76.3436 15.689 76.2823 15.6583 76.1902 15.6583H75.9754C75.8834 15.6583 75.822 15.689 75.7606 15.7504L73.1526 18.3278C73.0912 18.3891 73.0605 18.4505 73.0605 18.5119L72.4775 32.9637C70.5752 32.1966 69.1637 31.6443 68.8569 31.5216C67.7216 31.092 66.8011 31.5216 66.3716 31.8591L57.2893 38.4253V19.2176C57.2893 18.696 57.4428 18.1744 57.6882 17.7141C57.7496 17.5914 57.8416 17.4686 57.9337 17.3459C58.0564 17.1618 58.2098 17.0084 58.3939 16.855C58.4553 16.7936 58.5167 16.7629 58.578 16.7016C58.7621 16.5788 58.9462 16.4561 59.161 16.364C59.2224 16.3334 59.5292 16.2106 60.0508 15.9958C60.2349 15.9345 60.419 15.8424 60.6645 15.7811C61.4623 15.5049 62.5362 15.1367 63.8249 14.7685C64.1931 14.6765 64.5919 14.5537 64.9908 14.4617C65.3897 14.3696 65.8193 14.2469 66.2795 14.1549C67.3841 13.9094 68.6114 13.6639 69.9308 13.4798C72.0173 13.173 74.3492 12.9582 76.8346 12.9582C79.3199 12.9582 81.6211 13.173 83.7383 13.4798C84.7815 13.6332 85.7941 13.8173 86.7145 14.0014C87.1748 14.0935 87.635 14.2162 88.0646 14.3083C88.2794 14.3696 88.4942 14.4003 88.709 14.4617C89.1078 14.5537 89.5067 14.6765 89.8749 14.7685C90.2431 14.8606 90.6113 14.9833 90.9488 15.0753C91.4398 15.2288 91.9 15.3822 92.2989 15.5049C92.575 15.597 92.8205 15.689 93.0353 15.7811C93.2501 15.8731 93.4649 15.9345 93.649 15.9958C94.1706 16.2106 94.4774 16.3334 94.5388 16.364C94.6922 16.4254 94.8149 16.4868 94.9376 16.5788C94.999 16.6095 95.0604 16.6709 95.1217 16.7016C95.2445 16.7936 95.3672 16.8857 95.4593 17.0084C95.5206 17.0698 95.5513 17.1004 95.6127 17.1618C95.7047 17.2845 95.7968 17.3766 95.8888 17.53C95.9809 17.6527 96.0422 17.7755 96.1036 17.9289C96.1343 17.9903 96.165 18.0516 96.1957 18.1437C96.257 18.2971 96.2877 18.4198 96.3184 18.5732C96.3798 18.788 96.3798 19.0028 96.3798 19.2483L96.3491 36.6457Z" fill="white"/>
<path d="M86.0691 55.2706C85.4554 55.0865 84.8724 54.9638 84.3201 54.9638C83.3383 54.9638 82.878 55.2706 82.5405 55.5161C83.0621 55.3627 83.4303 55.3627 83.6758 55.4854C83.8599 55.5775 83.9519 55.7309 84.0133 55.9457C84.0747 56.2525 84.044 56.5286 83.8599 56.7434C83.5837 57.0809 83.0928 57.2957 82.4791 57.2957C82.203 57.2957 81.7734 57.265 81.8041 57.265C80.0552 57.1116 78.4596 56.498 77.0482 55.9457C76.3732 55.7002 75.7288 55.424 75.1152 55.2399C74.5015 55.0558 73.9185 54.9331 73.3662 54.9331C72.3844 54.9331 71.9241 55.2399 71.5866 55.4854C72.1082 55.332 72.4764 55.332 72.7219 55.4547C72.906 55.5468 72.998 55.7002 73.0594 55.915C73.1208 56.2218 73.0901 56.498 72.906 56.7127C72.6298 57.0502 72.1389 57.265 71.5252 57.265C71.2491 57.265 70.8195 57.2343 70.8502 57.2343C69.5001 57.1116 68.2421 56.7127 67.0762 56.2832C67.2296 56.4059 67.383 56.4979 67.5671 56.6207C67.9353 56.8661 68.3035 57.1116 68.641 57.3571C69.6536 58.0321 70.6354 58.6151 71.5559 59.1367C71.74 59.2594 71.9548 59.3515 72.1389 59.4742C72.5071 59.689 72.8753 59.8731 73.2128 60.0572C73.3662 60.1493 73.5503 60.2413 73.6731 60.3027C73.8265 60.3947 73.9799 60.4561 74.1026 60.5175C74.2254 60.5788 74.3788 60.6402 74.5015 60.7016C74.6856 60.7936 74.839 60.855 74.9924 60.947C75.3606 61.1311 75.6061 61.2232 75.6368 61.2538C76.0357 61.4379 76.4652 61.53 76.9255 61.53C77.1403 61.53 77.3551 61.4993 77.5698 61.4686C77.7846 61.438 77.9994 61.3459 78.1835 61.2538C78.1835 61.2538 78.2142 61.2232 78.2755 61.2232C78.3062 61.2232 78.3369 61.1925 78.3983 61.1618C78.429 61.1618 78.4596 61.1311 78.4903 61.1004C78.521 61.0697 78.5824 61.0698 78.6131 61.0391C78.7358 60.9777 78.8585 60.9163 79.0119 60.855C79.8711 60.4254 81.3132 59.689 83.0314 58.6765C83.6451 58.3083 84.2895 57.9094 84.9338 57.4798C85.3327 57.2343 85.7316 56.9582 86.1304 56.682C86.4066 56.4979 86.6827 56.3139 86.9282 56.0991C86.9589 56.0684 86.9896 56.0684 87.0203 56.0377L87.4805 55.6695C86.9589 55.5775 86.5293 55.424 86.0691 55.2706Z" fill="#1C2854"/>
<path d="M96.3485 38.0574C92.5438 36.4005 88.2481 34.5902 87.972 34.4675C87.8185 34.4061 87.6958 34.4675 87.6344 34.4675C87.2969 34.7129 83.9831 37.0448 83.5843 37.2903C82.9399 37.7199 82.2649 37.4744 82.1421 37.413C82.1115 37.413 81.866 37.2289 81.5898 37.0755L81.8967 44.5009C86.7753 44.8691 91.3471 45.8816 94.9677 47.4158C95.1825 46.9555 95.3973 46.4953 95.5814 46.035C95.7655 45.5748 95.8882 45.1145 96.011 44.6543C96.0723 44.4088 96.1337 44.194 96.1644 43.9486C96.2871 43.2429 96.3485 42.5678 96.3485 41.8621V38.0574Z" fill="#1C2854"/>
<path d="M61.0933 47.2316C61.216 47.1702 61.3388 47.1395 61.4922 47.0782C64.5605 45.9122 68.2118 45.0837 72.1086 44.6542L72.5075 34.2833C70.3903 33.4241 68.7334 32.7798 68.4266 32.657C67.8129 32.4116 67.3834 32.7184 67.3527 32.7798L67.2913 32.8105L57.2886 40.0517V41.8927C57.2886 42.6905 57.3806 43.4575 57.534 44.2553C57.5954 44.5008 57.6568 44.7769 57.7181 45.0224C57.7488 45.1451 57.7795 45.2678 57.8409 45.4213C57.9329 45.6667 58.025 45.9429 58.117 46.1883C58.2091 46.4338 58.3318 46.71 58.4545 46.9554C58.5773 47.2009 58.7 47.477 58.8534 47.7225C58.9148 47.8452 58.9762 47.968 59.0682 48.0907C59.6512 47.8146 60.2648 47.5384 60.9092 47.2623C60.9706 47.2929 61.0319 47.2623 61.0933 47.2316Z" fill="#1C2854"/>
<path d="M76.5578 44.3778H77.7238V24.7099H79.8103V23.2985H77.7238V17.53H76.2817V23.2985H74.1646V24.7099H76.251V44.3778C76.2817 44.4085 76.4658 44.3778 76.5578 44.3778Z" fill="#1C2854"/>
<path d="M91.8984 50.0544C91.2848 49.8703 90.7018 49.7476 90.1495 49.7476C89.1676 49.7476 88.7074 50.0544 88.4005 50.2999C88.9221 50.1464 89.2903 50.1464 89.5358 50.2692C89.7199 50.3612 89.812 50.5146 89.8733 50.7294C89.9347 51.0363 89.904 51.3124 89.7199 51.5272C89.4438 51.8647 88.9528 52.0795 88.3392 52.0795C88.063 52.0795 87.6334 52.0488 87.6641 52.0488C85.9152 51.8954 84.3197 51.2817 82.9082 50.7294C82.6628 50.6374 82.4173 50.5453 82.1718 50.4533C81.773 50.2999 81.3741 50.1464 80.9752 50.0544C80.3615 49.8703 79.7785 49.7476 79.2262 49.7476C79.1649 49.7476 79.0728 49.7476 79.0115 49.7476C78.9808 49.7476 78.9808 49.7476 78.9501 49.7476C78.8887 49.7476 78.8274 49.7476 78.7967 49.7476H78.766C78.7046 49.7476 78.6433 49.7782 78.5819 49.7782H78.5512C78.4898 49.7782 78.4592 49.8089 78.3978 49.8089H78.3671C78.3057 49.8089 78.2751 49.8396 78.2137 49.8396C78.1523 49.8703 78.1216 49.8703 78.091 49.901C78.091 49.901 78.091 49.901 78.0603 49.901C77.9682 49.9317 77.8762 49.993 77.8148 50.0237C77.6921 50.0851 77.6 50.1771 77.508 50.2385C77.6307 50.2078 77.7228 50.1771 77.8148 50.1464C77.8455 50.1464 77.8762 50.1464 77.9375 50.1158H77.9682H78.0603H78.091H78.2137H78.2751H78.3364H78.3978H78.4285C78.4592 50.1158 78.4898 50.1158 78.4898 50.1464H78.5205C78.5512 50.1464 78.5819 50.1771 78.6126 50.1771C78.7967 50.2692 78.8887 50.4226 78.9501 50.6374C79.0115 50.9442 78.9808 51.2204 78.7967 51.4351C78.5819 51.7113 78.2444 51.8647 77.8148 51.9568C77.6921 51.9874 77.5387 51.9874 77.4159 51.9874C77.1398 51.9874 76.7102 51.9568 76.7409 51.9568C76.6182 51.9568 76.4954 51.9261 76.4034 51.9261C74.8079 51.7113 73.3351 51.159 71.985 50.6374C71.31 50.3919 70.6656 50.1464 70.052 49.9623C69.4383 49.7783 68.8553 49.6555 68.303 49.6555C67.3212 49.6555 66.8609 49.9623 66.5234 50.2078C67.045 50.0544 67.4132 50.0544 67.6587 50.1771C67.8428 50.2692 67.9348 50.4226 67.9962 50.6374C68.0576 50.9442 68.0269 51.2204 67.8428 51.4351C67.5666 51.7727 67.0757 51.9874 66.462 51.9874C66.1859 51.9874 65.7563 51.9568 65.787 51.9568C64.038 51.8033 62.4425 51.1897 61.0311 50.6374C61.0004 50.6374 61.0004 50.6374 60.9697 50.6067C60.9697 50.6067 60.9697 50.6374 61.0004 50.6374C61.1231 50.7908 61.2459 50.9442 61.3686 51.0669C61.5527 51.2817 61.7675 51.5272 61.9516 51.742C61.9823 51.7727 62.013 51.8033 62.0743 51.8647C62.105 51.8954 62.1664 51.9261 62.1971 51.9874C62.5959 52.3863 62.9948 52.8159 63.4244 53.2148C63.6392 53.4296 63.8539 53.6137 64.0994 53.8284L64.6517 54.2887C65.1426 54.4421 65.6336 54.6262 66.1552 54.841C66.953 55.1478 67.8428 55.4853 68.886 55.7922C69.1621 55.8535 69.4383 55.9456 69.7144 56.0069C69.7451 54.4728 71.893 53.9512 73.5192 53.9512C74.7465 53.9512 75.8511 54.3807 77.1398 54.8717C77.9375 55.1785 78.8274 55.516 79.8706 55.8228C80.1467 55.8842 80.4229 55.9763 80.699 56.0376C80.7297 54.5035 82.8775 53.9818 84.5038 53.9818C85.7311 53.9818 86.8357 54.4114 88.1244 54.9023C88.2471 54.9637 88.3698 54.9944 88.5233 55.0558C89.0449 54.6262 89.5358 54.2273 90.0267 53.7978C90.6097 53.2761 91.162 52.7545 91.6836 52.2022C91.9598 51.9261 92.2359 51.6192 92.4814 51.3431C92.6348 51.1897 92.7575 51.0056 92.911 50.8215C93.0337 50.6681 93.1257 50.5453 93.2485 50.3919C92.6655 50.2999 92.2666 50.1464 91.8984 50.0544Z" fill="#1C2854"/>
<path d="M122.208 101.655V91.4897L120.602 91.154V90.243H129.808V93.5995H128.73L128.298 91.4417H125.828L124.222 91.5856V95.9012H126.979L127.315 94.6784H128.202V98.3227H127.315L126.979 97.052H124.222V101.583C124.726 101.679 125.301 101.727 125.972 101.727H128.466L128.945 99.5455H130V102.95H120.626V102.039L122.208 101.655ZM106.912 102.926V102.015L108.35 101.679V91.4657L107.08 91.202V90.243H110.412L116.262 99.5215L116.478 99.8811H116.622V91.4897L115.207 91.154V90.243H119.451V91.154L118.012 91.4897V102.926H116.046L110.101 93.5756L109.909 93.2399H109.765V101.703L111.203 102.039V102.95H106.912V102.926ZM100.534 101.991L102.117 101.679V91.5137L100.534 91.202V90.2669H105.737V91.202L104.155 91.5137V101.679L105.737 101.991V102.926H100.534V101.991ZM95.6913 101.248C96.3386 100.888 96.8181 100.313 97.1298 99.5215C97.4175 98.7303 97.5614 97.6514 97.5614 96.2848C97.5614 94.5586 97.2017 93.3358 96.4585 92.5926C95.7153 91.8493 94.6124 91.4657 93.1259 91.4657C92.5265 91.4657 91.9991 91.4897 91.4956 91.5616V101.607C91.8792 101.703 92.3827 101.751 92.9821 101.751C94.1329 101.775 95.02 101.583 95.6913 101.248ZM87.8753 101.991L89.4816 101.631V91.4897L87.8753 91.1301V90.219H93.7733C95.7393 90.219 97.2497 90.7465 98.3286 91.7774C99.3835 92.8083 99.911 94.3188 99.911 96.2848C99.911 98.4186 99.3356 100.049 98.1847 101.176C97.0339 102.327 95.3796 102.878 93.2458 102.878H87.8753V101.991ZM80.8744 96.4286C81.7376 96.4286 82.4568 96.1889 82.9843 95.7094C83.5117 95.2299 83.7755 94.5825 83.7755 93.7434C83.7755 92.8803 83.5357 92.2809 83.0802 91.9452C82.6246 91.6335 82.0013 91.4657 81.2341 91.4657C80.8025 91.4657 80.323 91.4897 79.8195 91.5376V96.4286H80.8744ZM76.2232 101.991L77.8295 101.631V91.4657L76.2232 91.1301V90.219H81.7615C83.0562 90.219 84.0872 90.4827 84.8304 91.0102C85.5736 91.5376 85.9333 92.3528 85.9333 93.5036C85.9333 94.5106 85.6935 95.3018 85.19 95.8532C84.7105 96.4047 84.0392 96.8602 83.224 97.2198L85.8613 101.631L87.2279 101.991V102.902H84.9263C84.4228 102.902 84.0632 102.71 83.8234 102.303L81.258 97.6274H79.8195V101.631L81.4259 101.991V102.902H76.1992L76.2232 101.991ZM44.6714 101.991L46.2778 101.631V91.4657L44.6714 91.1301V90.219H49.7303C51.2887 90.219 52.4875 90.4827 53.3266 90.9862C54.1657 91.4897 54.5733 92.3528 54.5733 93.5516C54.5733 94.9182 54.1418 95.9731 53.3026 96.6924C52.4635 97.4116 51.3366 97.7953 49.9221 97.7953C49.7782 97.7953 49.5385 97.7713 49.2268 97.7473L49.1309 96.9321C50.2338 96.9082 51.0729 96.6684 51.6004 96.2129C52.1518 95.7573 52.4155 95.0141 52.4155 93.9592C52.4155 92.2809 51.5045 91.4417 49.7063 91.4417C49.3946 91.4417 49.1069 91.4417 48.8432 91.4657C48.5555 91.4897 48.3876 91.5137 48.3157 91.5137V101.559L50.3057 101.919V102.878H44.6954V101.991H44.6714ZM67.0166 101.655V91.4897L65.4102 91.154V90.243H74.6168V93.5995H73.5379L73.1064 91.4417H70.6369L69.0305 91.5856V95.9012H71.7877L72.1234 94.6784H73.0105V98.3227H72.1234L71.7877 97.052H69.0305V101.583C69.534 101.679 70.1094 101.727 70.7808 101.727H73.2742L73.7537 99.5455H74.8086V102.95H65.4342V102.039L67.0166 101.655ZM55.0528 101.991L56.6592 101.631V91.4657L55.0528 91.1301V90.219H60.1117C61.6701 90.219 62.8688 90.4827 63.708 90.9862C64.5471 91.4897 64.9547 92.3528 64.9547 93.5516C64.9547 94.9182 64.5231 95.9731 63.684 96.6924C62.8449 97.4116 61.718 97.7953 60.3035 97.7953C60.1596 97.7953 59.9199 97.7713 59.6082 97.7473L59.5123 96.9321C60.6151 96.9082 61.4543 96.6684 61.9817 96.2129C62.5332 95.7573 62.7969 95.0141 62.7969 93.9592C62.7969 92.2809 61.8858 91.4417 60.0877 91.4417C59.776 91.4417 59.4883 91.4417 59.2246 91.4657C58.9369 91.4897 58.769 91.5137 58.6971 91.5137V101.559L60.6871 101.919V102.878H55.0768V101.991H55.0528ZM35.4169 101.655V91.4897L33.8105 91.154V90.243H43.0171V93.5995H41.9382L41.5067 91.4417H39.0372L37.4308 91.5856V95.9012H40.188L40.5237 94.6784H41.4108V98.3227H40.5237L40.188 97.052H37.4548V101.583C37.9583 101.679 38.5337 101.727 39.205 101.727H41.6985L42.178 99.5455H43.2329V102.95H33.8585V102.039L35.4169 101.655ZM23.4531 101.991L25.0595 101.631V91.4657L23.4531 91.1301V90.219H28.512C30.0704 90.219 31.2691 90.4827 32.1083 90.9862C32.9474 91.4897 33.355 92.3528 33.355 93.5516C33.355 94.9182 32.9234 95.9731 32.0843 96.6924C31.2452 97.4116 30.1183 97.7953 28.7038 97.7953C28.5599 97.7953 28.3202 97.7713 28.0085 97.7473L27.9126 96.9321C29.0154 96.9082 29.8546 96.6684 30.382 96.2129C30.9335 95.7573 31.1972 95.0141 31.1972 93.9592C31.1972 92.2809 30.2861 91.4417 28.488 91.4417C28.1763 91.4417 27.8886 91.4417 27.6249 91.4657C27.3372 91.4897 27.1693 91.5137 27.0974 91.5137V101.559L29.0874 101.919V102.878H23.4771V101.991H23.4531Z" fill="white"/>
<path d="M59.794 119.581V109.802H67.1694V112.123H62.2939V113.614H66.3131V115.824H62.2939V117.275H67.1694V119.581H59.794ZM67.4858 119.581L71.4083 109.802H73.9497L77.8307 119.581H75.1375L74.6541 118.2H70.6625L70.1653 119.581H67.4858ZM71.4498 115.949H73.8668L72.679 112.592L71.4498 115.949ZM80.0469 119.581V112.123H77.1464V109.802H85.461V112.123H82.5468V119.581H80.0469ZM90.123 119.692C89.4048 119.692 88.7372 119.572 88.1203 119.332C87.5126 119.093 87.0108 118.72 86.6149 118.214C86.2281 117.707 85.9933 117.063 85.9105 116.28H88.4242C88.4886 116.538 88.6083 116.75 88.7833 116.915C88.9582 117.072 89.1746 117.187 89.4324 117.261C89.6995 117.334 89.9849 117.371 90.2888 117.371C90.4729 117.371 90.6617 117.353 90.855 117.316C91.0484 117.279 91.2095 117.21 91.3384 117.109C91.4766 117.007 91.5456 116.86 91.5456 116.667C91.5456 116.529 91.5042 116.418 91.4213 116.335C91.3477 116.243 91.2372 116.17 91.0898 116.114C90.9517 116.05 90.7768 115.995 90.565 115.949C90.4821 115.93 90.3946 115.912 90.3026 115.893C90.2197 115.875 90.1368 115.857 90.054 115.838C89.9711 115.82 89.8836 115.801 89.7915 115.783C89.3219 115.682 88.8708 115.566 88.438 115.438C88.0052 115.299 87.6231 115.12 87.2916 114.899C86.9601 114.678 86.6977 114.383 86.5044 114.015C86.311 113.647 86.2143 113.182 86.2143 112.62C86.2143 112.104 86.3064 111.672 86.4906 111.322C86.6747 110.963 86.9187 110.677 87.2226 110.465C87.5264 110.244 87.8579 110.079 88.217 109.968C88.5761 109.858 88.9306 109.784 89.2805 109.747C89.6304 109.701 89.9435 109.678 90.2197 109.678C90.9011 109.678 91.4996 109.807 92.0152 110.065C92.5309 110.313 92.9452 110.682 93.2583 111.17C93.5805 111.658 93.7739 112.247 93.8384 112.938H91.4213C91.3937 112.735 91.3108 112.565 91.1727 112.427C91.0346 112.279 90.855 112.169 90.634 112.095C90.4223 112.012 90.1737 111.971 89.8882 111.971C89.7225 111.971 89.5659 111.985 89.4186 112.012C89.2713 112.04 89.1424 112.081 89.0319 112.137C88.9306 112.192 88.8477 112.261 88.7833 112.344C88.7188 112.427 88.6866 112.523 88.6866 112.634C88.6866 112.781 88.7419 112.905 88.8523 113.007C88.972 113.108 89.1424 113.195 89.3634 113.269C89.5936 113.343 89.8744 113.421 90.2059 113.504C90.3624 113.541 90.5143 113.578 90.6617 113.614C90.809 113.642 90.9563 113.674 91.1036 113.711C91.5088 113.803 91.8863 113.909 92.2362 114.029C92.5953 114.148 92.9084 114.305 93.1754 114.498C93.4516 114.692 93.668 114.954 93.8245 115.286C93.9811 115.608 94.0593 116.022 94.0593 116.529C94.0593 117.109 93.9488 117.601 93.7279 118.007C93.5069 118.402 93.2076 118.725 92.8301 118.973C92.4526 119.222 92.029 119.406 91.5594 119.526C91.0898 119.636 90.611 119.692 90.123 119.692Z" fill="white"/>
</svg>
