<svg width="79" height="75" viewBox="0 0 79 75" fill="none" xmlns="http://www.w3.org/2000/svg">
<rect x="0.201402" y="0.201402" width="78.5971" height="74.1407" rx="7.85467" fill="#1C2854"/>
<rect x="0.201402" y="0.201402" width="78.5971" height="74.1407" rx="7.85467" stroke="white" stroke-width="0.402804"/>
<path d="M31.647 31.6729C31.9556 31.7963 33.4061 32.3518 35.2885 33.1233L35.8749 18.5882C35.8749 18.5265 35.9058 18.4339 35.9675 18.403L38.5906 15.8108C38.6523 15.749 38.714 15.7182 38.8066 15.7182H39.0226C39.1152 15.7182 39.1769 15.749 39.2387 15.8108C39.3004 15.8725 39.3312 15.9342 39.3312 16.0268V16.5514H40.2262V16.0268C40.2262 15.9342 40.257 15.8725 40.3188 15.8108C40.3805 15.749 40.4422 15.7182 40.5348 15.7182H40.7508C40.8434 15.7182 40.9051 15.749 40.9668 15.8108L43.59 18.403C43.6517 18.4647 43.6825 18.5265 43.6825 18.5882L44.3615 35.9625C44.8861 36.1785 45.4107 36.4254 45.4724 36.4562C45.5033 36.4562 45.5959 36.4871 45.7193 36.4254C46.0279 36.2094 48.5276 34.4812 49.7929 33.5862H49.8237C49.8854 33.5554 50.5335 33.1542 51.3359 33.4628C51.6136 33.5862 55.8723 35.3761 59.2978 36.8266V19.3288C59.2978 18.8659 59.2052 18.4339 59.0201 18.0018C58.9892 17.9401 58.9583 17.8784 58.9275 17.8167C58.8658 17.6932 58.804 17.6006 58.7115 17.5081C58.6497 17.4155 58.588 17.3538 58.5263 17.292C58.4337 17.1686 58.3103 17.076 58.2177 16.9834C58.0325 16.8291 57.8474 16.7057 57.6622 16.6131C57.6005 16.5823 57.5388 16.5514 57.4462 16.5205C57.3845 16.4897 57.1685 16.3971 56.7981 16.2428C56.6438 16.1811 56.4587 16.1194 56.2735 16.0268C56.1809 15.9959 56.0575 15.9342 55.9649 15.9033C55.7489 15.8108 55.502 15.7182 55.2243 15.6256C54.8231 15.4713 54.3602 15.3478 53.8664 15.1935C53.4035 15.0392 52.8789 14.9158 52.3543 14.7615C52.1074 14.6998 51.8605 14.6381 51.6136 14.5763C50.1632 14.206 48.4967 13.8357 46.6451 13.5888C44.5466 13.2802 42.2012 13.0642 39.7016 13.0642C37.2019 13.0642 34.8874 13.2802 32.758 13.5888C30.9064 13.8666 29.2399 14.206 27.7895 14.5763C27.5735 14.6381 27.3883 14.6689 27.1723 14.7306C25.3824 15.1935 23.9937 15.6873 23.0679 16.0268C22.7593 16.1502 22.5124 16.2428 22.3273 16.3045C22.0804 16.3971 21.9261 16.4897 21.8952 16.4897C21.6792 16.5823 21.494 16.7057 21.3089 16.8291C21.2471 16.86 21.1854 16.9217 21.1237 16.9834C20.9385 17.1377 20.8151 17.292 20.6608 17.4772C20.5682 17.6006 20.4756 17.7241 20.4139 17.8475C20.167 18.3104 20.0127 18.8351 20.0127 19.3597V38.6473L29.2399 32.0124C29.5794 31.6729 30.5052 31.2409 31.647 31.6729Z" fill="#1C2854"/>
<path d="M44.7316 46.146C43.3737 46.0226 41.9541 45.9609 40.5346 45.9609C40.5037 45.9609 40.5037 45.9609 40.4728 45.9609C39.9791 45.9609 39.5162 45.9609 39.0224 45.9917C37.572 46.0226 36.1524 46.146 34.7637 46.2695C29.9495 46.7941 25.6291 47.9668 22.4196 49.5407C22.7591 49.6641 23.0985 49.7876 23.4689 49.9419C24.2712 50.2505 25.1662 50.5899 26.2154 50.8677C26.4932 50.9294 26.7709 51.022 27.0486 51.0837C27.0795 49.5407 29.2397 49.0161 30.8753 49.0161C32.1097 49.0161 33.2207 49.4481 34.5168 49.9419C34.5477 49.9419 34.5785 49.9727 34.6094 49.9727C35.3809 50.2813 36.245 50.5899 37.2634 50.8677C37.5411 50.9294 37.8189 51.022 38.0966 51.0837C38.1275 50.4665 38.4669 50.0036 39.0224 49.695C39.4236 49.4481 39.9482 49.2629 40.4728 49.1704C40.9666 49.0778 41.4604 49.0161 41.9233 49.0161C42.9417 49.0161 43.8675 49.2938 44.855 49.6641C45.071 49.7567 45.3179 49.8493 45.5648 49.9419C46.3671 50.2505 47.2621 50.5899 48.3113 50.8677C48.5891 50.9294 48.8668 51.022 49.1446 51.0837C49.1754 49.5407 51.3356 49.0161 52.9712 49.0161C54.1748 49.0161 55.2549 49.4172 56.4893 49.911C56.551 49.8493 56.5819 49.7876 56.6436 49.7258C56.7362 49.6024 56.8288 49.4481 56.9213 49.3247C57.0139 49.2012 57.0756 49.0778 57.1682 48.9543C53.8045 47.5348 49.484 46.5472 44.7316 46.146Z" fill="#D55F36"/>
<path d="M60.5001 36.8573V38.2769V42.1344C60.5001 44.1712 59.9755 46.2388 58.9571 48.2448C58.8028 48.5842 58.6176 48.8928 58.4633 49.1706L58.4016 49.2631C58.3708 49.3249 58.3399 49.3866 58.2782 49.4483C58.2473 49.4792 58.2473 49.51 58.2473 49.51C58.0622 49.8186 57.877 50.0964 57.6918 50.3741C57.5684 50.5284 57.445 50.7136 57.3215 50.8679L57.2289 50.9913C57.0129 51.2999 56.766 51.5777 56.5192 51.8863L56.3957 52.0406C56.3031 52.164 56.1797 52.2874 56.0871 52.4418C55.8402 52.7504 55.5316 53.0281 55.2539 53.3367C54.2046 54.4168 52.9702 55.5278 51.5507 56.6079C51.2112 56.8548 50.8717 57.1325 50.5323 57.3794L50.4705 57.4411C46.0267 60.6814 41.6137 62.6565 41.4285 62.7491C40.873 62.996 40.2558 63.1194 39.6386 63.1194C39.0214 63.1194 38.4042 62.996 37.8487 62.7491C37.7253 62.6874 34.4232 61.2369 30.6583 58.7372C30.0719 58.3361 29.4856 57.9349 28.9301 57.5337L28.8993 57.5028L28.8067 57.4411C28.4672 57.1942 28.1586 56.9473 27.8191 56.7005C27.3871 56.361 26.9551 56.0215 26.5539 55.7129C25.5972 54.9106 24.6714 54.0465 23.8382 53.1824C23.8073 53.1515 23.7765 53.1207 23.7765 53.1207C23.7147 53.059 23.653 52.9972 23.6222 52.9664C23.4061 52.7195 23.1901 52.5035 23.005 52.2566C22.6963 51.9171 22.4495 51.6085 22.2334 51.3308C21.9557 50.9913 21.7088 50.621 21.4619 50.2507C21.2151 49.9112 20.999 49.5409 20.783 49.1706C20.7522 49.1397 20.7213 49.078 20.7213 49.0471L20.6904 49.0163C19.3943 46.7635 18.7462 44.449 18.7462 42.1344V40.2828V38.6472V19.3287C18.7462 17.6006 19.7646 16.0575 21.3385 15.3478C21.678 15.1935 29.4239 11.768 39.6386 11.768C49.8533 11.768 57.6301 15.1935 57.9387 15.3478C59.5126 16.0575 60.531 17.6314 60.531 19.3287L60.5001 36.8573ZM58.4016 14.2368C58.0622 14.0825 50.0694 10.5336 39.5769 10.5336C29.0844 10.5336 21.0916 14.0825 20.7522 14.2368C18.7462 15.1317 17.4192 17.1685 17.4192 19.3596V38.6472V40.2828V42.1344C17.4192 44.665 18.129 47.1647 19.5177 49.6335L19.6103 49.8186C19.8263 50.189 20.0732 50.5901 20.3201 50.9605C20.567 51.3616 20.8447 51.732 21.1533 52.1023C21.4002 52.4109 21.6471 52.7195 21.9557 53.0898C22.1717 53.3367 22.3877 53.5836 22.6038 53.8305C22.6655 53.8922 22.7272 53.9539 22.8198 54.0465L22.8506 54.0773C23.7147 55.0032 24.6714 55.8981 25.6589 56.7005C26.0601 57.0399 26.4922 57.3794 26.9551 57.7497C27.2945 57.9966 27.6031 58.2435 27.9426 58.4904L28.0352 58.5521L28.066 58.5829C28.6215 58.9841 29.2387 59.4162 29.8251 59.8174C33.6826 62.3479 37.0464 63.86 37.2007 63.9218C37.9413 64.2304 38.7128 64.4155 39.5152 64.4155C40.3175 64.4155 41.089 64.2612 41.8297 63.9218C42.0148 63.8292 46.5513 61.8233 51.1186 58.4904C51.1495 58.4595 51.1803 58.4286 51.2112 58.4286C51.5507 58.1818 51.921 57.904 52.2604 57.6571C53.7109 56.5153 55.007 55.3735 56.0871 54.2625C56.3957 53.9539 56.6735 53.6144 56.9512 53.3058C57.0746 53.1824 57.1981 53.0281 57.2907 52.8738L57.4141 52.7195C57.661 52.4109 57.9387 52.1023 58.1547 51.7628L58.2473 51.6394C58.3708 51.4542 58.5251 51.2999 58.6485 51.1148C58.8337 50.837 59.0188 50.5284 59.2349 50.2198C59.2657 50.189 59.2657 50.1581 59.2966 50.1272C59.3274 50.0655 59.3892 49.9729 59.42 49.8804L59.4509 49.8186C59.636 49.51 59.8212 49.1706 60.0064 48.8002C61.1173 46.6092 61.6728 44.3564 61.6728 42.1344V38.2769V36.8573V19.3287C61.7345 17.1377 60.4384 15.1317 58.4016 14.2368Z" fill="#1C2854"/>
<path d="M57.9087 15.3475C57.5693 15.1932 49.8233 11.7677 39.6086 11.7677C29.3939 11.7677 21.6171 15.1932 21.3085 15.3475C19.7346 16.0573 18.7162 17.6311 18.7162 19.3284V38.6469V40.2825V42.1342C18.7162 44.4487 19.3643 46.7632 20.6604 49.016L20.6913 49.0468C20.7222 49.0777 20.753 49.1394 20.753 49.1703C20.969 49.5406 21.1851 49.8801 21.4319 50.2504C21.6788 50.6207 21.9257 50.991 22.2034 51.3305C22.4195 51.6082 22.6663 51.9169 22.975 52.2563C23.191 52.5032 23.3761 52.7192 23.5922 52.9661C23.6539 53.0278 23.6847 53.0895 23.7465 53.1204C23.7773 53.1513 23.8082 53.1821 23.8082 53.1821C24.6414 54.0771 25.5672 54.9103 26.5239 55.7127C26.8942 56.0213 27.3262 56.3607 27.7891 56.7002C28.0977 56.9471 28.4372 57.1939 28.7767 57.4408L28.8693 57.5026L28.9001 57.5334C29.4556 57.9346 30.0419 58.3358 30.6283 58.737C34.3932 61.2058 37.6644 62.6871 37.8187 62.7488C38.3742 62.9957 38.9914 63.1191 39.6086 63.1191C40.2258 63.1191 40.843 62.9957 41.3985 62.7488C41.5837 62.6562 45.9967 60.6812 50.4406 57.4408L50.5023 57.3791C50.8726 57.1014 51.2121 56.8545 51.5207 56.6076C52.9402 55.5275 54.1746 54.4165 55.2239 53.3364C55.5016 53.0278 55.8102 52.7192 56.0571 52.4415C56.1806 52.318 56.2731 52.1946 56.3657 52.0403L56.4892 51.886C56.736 51.5774 56.9829 51.2996 57.1989 50.991L57.2915 50.8676C57.415 50.7133 57.5384 50.5281 57.6618 50.3738C57.847 50.0961 58.0322 49.8184 58.2173 49.5097C58.2173 49.5097 58.2482 49.4789 58.2482 49.448C58.279 49.3863 58.3099 49.3246 58.3716 49.232L58.4333 49.1394C58.6185 48.8308 58.7728 48.5531 58.9271 48.2136C59.9455 46.1768 60.4701 44.1401 60.4701 42.1033V38.2458V36.8262V19.2976C60.501 17.6311 59.4826 16.0573 57.9087 15.3475Z" fill="white"/>
<path d="M48.8964 55.59C48.2792 55.4048 47.6929 55.2814 47.1374 55.2814C46.1499 55.2814 45.687 55.59 45.3475 55.8368C45.8721 55.6825 46.2424 55.6825 46.4893 55.806C46.6745 55.8986 46.7671 56.0529 46.8288 56.2689C46.8905 56.5775 46.8596 56.8552 46.6745 57.0712C46.3967 57.4107 45.903 57.6267 45.2858 57.6267C45.008 57.6267 44.576 57.5959 44.6068 57.5959C42.8478 57.4416 41.2431 56.8244 39.8235 56.2689C39.1446 56.022 38.4965 55.7443 37.8793 55.5591C37.2621 55.3739 36.6758 55.2505 36.1203 55.2505C35.1328 55.2505 34.6699 55.5591 34.3304 55.806C34.855 55.6517 35.2253 55.6517 35.4722 55.7751C35.6574 55.8677 35.75 56.022 35.8117 56.238C35.8734 56.5466 35.8425 56.8244 35.6574 57.0404C35.3796 57.3799 34.8859 57.5959 34.2687 57.5959C33.9909 57.5959 33.5589 57.565 33.5897 57.565C32.2319 57.4416 30.9666 57.0404 29.7939 56.6083C29.9482 56.7318 30.1025 56.8244 30.2877 56.9478C30.658 57.1947 31.0283 57.4416 31.3678 57.6885C32.3862 58.3674 33.3737 58.9537 34.2995 59.4783C34.4847 59.6018 34.7007 59.6944 34.8859 59.8178C35.2562 60.0338 35.6265 60.219 35.966 60.4042C36.1203 60.4967 36.3054 60.5893 36.4289 60.651C36.5832 60.7436 36.7375 60.8053 36.8609 60.8671C36.9844 60.9288 37.1387 60.9905 37.2621 61.0522C37.4473 61.1448 37.6016 61.2065 37.7559 61.2991C38.1262 61.4843 38.3731 61.5768 38.4039 61.6077C38.8051 61.7929 39.2372 61.8854 39.7001 61.8854C39.9161 61.8854 40.1321 61.8546 40.3481 61.8237C40.5642 61.7929 40.7802 61.7003 40.9653 61.6077C40.9653 61.6077 40.9962 61.5768 41.0579 61.5768C41.0888 61.5768 41.1196 61.546 41.1814 61.5151C41.2122 61.5151 41.2431 61.4843 41.2739 61.4534C41.3048 61.4225 41.3665 61.4225 41.3974 61.3917C41.5208 61.33 41.6443 61.2682 41.7986 61.2065C42.6627 60.7745 44.1131 60.0338 45.8413 59.0154C46.4585 58.6451 47.1065 58.2439 47.7546 57.8119C48.1558 57.565 48.557 57.2873 48.9581 57.0095C49.2359 56.8244 49.5136 56.6392 49.7605 56.4232C49.7914 56.3923 49.8222 56.3923 49.8531 56.3615L50.316 55.9911C49.7914 55.8986 49.3593 55.7443 48.8964 55.59Z" fill="#1C2854"/>
</svg>
