<svg width="154" height="124" viewBox="0 0 154 124" fill="none" xmlns="http://www.w3.org/2000/svg">
<rect x="37.6545" y="0.201402" width="78.1439" height="73.7131" rx="7.85467" fill="#1C2854"/>
<rect x="37.6545" y="0.201402" width="78.1439" height="73.7131" rx="7.85467" stroke="white" stroke-width="0.402804"/>
<path d="M68.9186 31.4912C69.2255 31.614 70.6676 32.1663 72.5393 32.9334L73.1222 18.4816C73.1222 18.4202 73.1529 18.3281 73.2143 18.2975L75.8224 15.7201C75.8837 15.6587 75.9451 15.628 76.0372 15.628H76.2519C76.344 15.628 76.4054 15.6587 76.4667 15.7201C76.5281 15.7814 76.5588 15.8428 76.5588 15.9348V16.4565H77.4486V15.9348C77.4486 15.8428 77.4793 15.7814 77.5406 15.7201C77.602 15.6587 77.6634 15.628 77.7554 15.628H77.9702C78.0622 15.628 78.1236 15.6587 78.185 15.7201L80.7931 18.2975C80.8544 18.3588 80.8851 18.4202 80.8851 18.4816L81.5601 35.7562C82.0818 35.971 82.6034 36.2165 82.6647 36.2471C82.6954 36.2471 82.7875 36.2778 82.9102 36.2165C83.217 36.0017 85.7024 34.2834 86.9604 33.3936H86.9911C87.0524 33.3629 87.6968 32.964 88.4945 33.2709C88.7707 33.3936 93.005 35.1732 96.4108 36.6153V19.218C96.4108 18.7577 96.3188 18.3281 96.1347 17.8986C96.104 17.8372 96.0733 17.7758 96.0426 17.7145C95.9813 17.5917 95.9199 17.4997 95.8278 17.4076C95.7665 17.3156 95.7051 17.2542 95.6437 17.1929C95.5517 17.0701 95.429 16.9781 95.3369 16.886C95.1528 16.7326 94.9687 16.6099 94.7846 16.5178C94.7232 16.4871 94.6619 16.4565 94.5698 16.4258C94.5085 16.3951 94.2937 16.303 93.9255 16.1496C93.7721 16.0883 93.588 16.0269 93.4039 15.9348C93.3118 15.9042 93.1891 15.8428 93.097 15.8121C92.8822 15.7201 92.6368 15.628 92.3606 15.536C91.9617 15.3826 91.5015 15.2598 91.0106 15.1064C90.5503 14.953 90.0287 14.8303 89.5071 14.6768C89.2616 14.6155 89.0162 14.5541 88.7707 14.4927C87.3286 14.1245 85.6717 13.7563 83.8307 13.5109C81.7442 13.204 79.4123 12.9893 76.927 12.9893C74.4416 12.9893 72.1404 13.204 70.0232 13.5109C68.1823 13.787 66.5254 14.1245 65.0832 14.4927C64.8685 14.5541 64.6844 14.5848 64.4696 14.6462C62.69 15.1064 61.3092 15.5973 60.3887 15.9348C60.0819 16.0576 59.8364 16.1496 59.6523 16.211C59.4068 16.303 59.2534 16.3951 59.2228 16.3951C59.008 16.4871 58.8239 16.6099 58.6398 16.7326C58.5784 16.7633 58.517 16.8247 58.4557 16.886C58.2716 17.0394 58.1488 17.1929 57.9954 17.377C57.9034 17.4997 57.8113 17.6224 57.75 17.7452C57.5045 18.2054 57.3511 18.727 57.3511 19.2486V38.4256L66.5254 31.8288C66.8629 31.4912 67.7834 31.0617 68.9186 31.4912Z" fill="#1C2854"/>
<path d="M81.9281 45.8814C80.578 45.7586 79.1666 45.6973 77.7552 45.6973C77.7245 45.6973 77.7245 45.6973 77.6938 45.6973C77.2029 45.6973 76.7426 45.6973 76.2517 45.728C74.8096 45.7586 73.3982 45.8814 72.0174 46.0041C67.2308 46.5257 62.9352 47.6917 59.7441 49.2565C60.0817 49.3793 60.4192 49.502 60.7874 49.6554C61.5851 49.9622 62.4749 50.2998 63.5182 50.5759C63.7943 50.6373 64.0705 50.7293 64.3466 50.7907C64.3773 49.2565 66.5251 48.7349 68.1513 48.7349C69.3787 48.7349 70.4833 49.1645 71.772 49.6554C71.8026 49.6554 71.8333 49.6861 71.864 49.6861C72.6311 49.9929 73.4902 50.2998 74.5028 50.5759C74.7789 50.6373 75.0551 50.7293 75.3312 50.7907C75.3619 50.177 75.6994 49.7168 76.2517 49.4099C76.6506 49.1645 77.1722 48.9804 77.6938 48.8883C78.1848 48.7963 78.6757 48.7349 79.1359 48.7349C80.1485 48.7349 81.069 49.0111 82.0508 49.3793C82.2656 49.4713 82.5111 49.5634 82.7566 49.6554C83.5543 49.9622 84.4441 50.2998 85.4874 50.5759C85.7635 50.6373 86.0397 50.7293 86.3158 50.7907C86.3465 49.2565 88.4943 48.7349 90.1205 48.7349C91.3172 48.7349 92.3911 49.1338 93.6184 49.6247C93.6798 49.5634 93.7105 49.502 93.7718 49.4406C93.8639 49.3179 93.9559 49.1645 94.048 49.0417C94.14 48.919 94.2014 48.7963 94.2934 48.6735C90.949 47.2621 86.6533 46.2802 81.9281 45.8814Z" fill="#D55F36"/>
<path d="M97.6062 36.6459V38.0574V41.8928C97.6062 43.9179 97.0846 45.9736 96.0721 47.968C95.9187 48.3056 95.7346 48.6124 95.5811 48.8885L95.5198 48.9806C95.4891 49.042 95.4584 49.1033 95.397 49.1647C95.3664 49.1954 95.3664 49.2261 95.3664 49.2261C95.1823 49.5329 94.9982 49.809 94.8141 50.0852C94.6913 50.2386 94.5686 50.4227 94.4459 50.5761L94.3538 50.6989C94.139 51.0057 93.8936 51.2818 93.6481 51.5887L93.5254 51.7421C93.4333 51.8648 93.3106 51.9875 93.2185 52.141C92.9731 52.4478 92.6662 52.7239 92.3901 53.0308C91.3469 54.1047 90.1195 55.2093 88.7081 56.2832C88.3706 56.5287 88.0331 56.8048 87.6956 57.0503L87.6342 57.1116C83.2158 60.3334 78.8281 62.2971 78.644 62.3892C78.0917 62.6346 77.478 62.7574 76.8644 62.7574C76.2507 62.7574 75.637 62.6346 75.0848 62.3892C74.962 62.3278 71.6789 60.8857 67.9356 58.4003C67.3526 58.0015 66.7696 57.6026 66.2173 57.2037L66.1866 57.173L66.0946 57.1116C65.7571 56.8662 65.4502 56.6207 65.1127 56.3752C64.6831 56.0377 64.2536 55.7002 63.8547 55.3934C62.9035 54.5956 61.983 53.7365 61.1546 52.8774C61.1239 52.8467 61.0932 52.816 61.0932 52.816C61.0318 52.7546 60.9705 52.6933 60.9398 52.6626C60.725 52.4171 60.5102 52.2023 60.3261 51.9569C60.0193 51.6194 59.7738 51.3125 59.559 51.0364C59.2829 50.6989 59.0374 50.3307 58.792 49.9625C58.5465 49.6249 58.3317 49.2567 58.1169 48.8885C58.0862 48.8579 58.0556 48.7965 58.0556 48.7658L58.0249 48.7351C56.7362 46.4953 56.0918 44.194 56.0918 41.8928V40.0518V38.4256V19.2179C56.0918 17.4996 57.1044 15.9654 58.6692 15.2597C59.0067 15.1063 66.7082 11.7005 76.8644 11.7005C87.0205 11.7005 94.7527 15.1063 95.0595 15.2597C96.6244 15.9654 97.6369 17.5303 97.6369 19.2179L97.6062 36.6459ZM95.5198 14.1551C95.1823 14.0017 87.2353 10.4731 76.803 10.4731C66.3707 10.4731 58.4238 14.0017 58.0862 14.1551C56.0918 15.0449 54.7725 17.07 54.7725 19.2485V38.4256V40.0518V41.8928C54.7725 44.4088 55.4782 46.8941 56.8589 49.3488L56.951 49.5329C57.1658 49.9011 57.4112 50.3 57.6567 50.6682C57.9021 51.067 58.1783 51.4352 58.4851 51.8034C58.7306 52.1103 58.9761 52.4171 59.2829 52.7853C59.4977 53.0308 59.7125 53.2762 59.9272 53.5217C59.9886 53.5831 60.05 53.6444 60.142 53.7365L60.1727 53.7672C61.0318 54.6877 61.983 55.5775 62.9649 56.3752C63.3638 56.7128 63.7933 57.0503 64.2536 57.4185C64.5911 57.6639 64.8979 57.9094 65.2354 58.1549L65.3275 58.2162L65.3582 58.2469C65.9105 58.6458 66.5241 59.0754 67.1071 59.4743C70.9425 61.9903 74.287 63.4938 74.4404 63.5551C75.1768 63.8619 75.9439 64.0461 76.7416 64.0461C77.5394 64.0461 78.3065 63.8926 79.0429 63.5551C79.227 63.4631 83.7374 61.4687 88.2785 58.1549C88.3092 58.1242 88.3399 58.0935 88.3706 58.0935C88.7081 57.848 89.0763 57.5719 89.4138 57.3264C90.8559 56.1912 92.1446 55.0559 93.2185 53.9513C93.5254 53.6444 93.8015 53.3069 94.0777 53.0001C94.2004 52.8774 94.3231 52.7239 94.4152 52.5705L94.5379 52.4171C94.7834 52.1103 95.0595 51.8034 95.2743 51.4659L95.3664 51.3432C95.4891 51.1591 95.6425 51.0057 95.7652 50.8216C95.9493 50.5454 96.1334 50.2386 96.3482 49.9318C96.3789 49.9011 96.3789 49.8704 96.4096 49.8397C96.4403 49.7783 96.5016 49.6863 96.5323 49.5942L96.563 49.5329C96.7471 49.2261 96.9312 48.8885 97.1153 48.5203C98.2199 46.3418 98.7722 44.102 98.7722 41.8928V38.0574V36.6459V19.2179C98.8336 17.0394 97.5449 15.0449 95.5198 14.1551Z" fill="#1C2854"/>
<path d="M95.0297 15.2594C94.6922 15.106 86.9907 11.7002 76.8346 11.7002C66.6784 11.7002 58.9462 15.106 58.6394 15.2594C57.0746 15.9652 56.062 17.53 56.062 19.2176V38.4253V40.0515V41.8925C56.062 44.1937 56.7064 46.495 57.9951 48.7348L58.0257 48.7655C58.0564 48.7962 58.0871 48.8576 58.0871 48.8883C58.3019 49.2565 58.5167 49.594 58.7621 49.9622C59.0076 50.3304 59.2531 50.6986 59.5292 51.0361C59.744 51.3122 59.9895 51.6191 60.2963 51.9566C60.5111 52.202 60.6952 52.4168 60.91 52.6623C60.9713 52.7237 61.002 52.785 61.0634 52.8157C61.0941 52.8464 61.1247 52.8771 61.1247 52.8771C61.9532 53.7669 62.8737 54.5953 63.8249 55.3931C64.1931 55.6999 64.6226 56.0374 65.0829 56.375C65.3897 56.6204 65.7272 56.8659 66.0647 57.1114L66.1568 57.1727L66.1875 57.2034C66.7398 57.6023 67.3228 58.0012 67.9057 58.4001C71.6491 60.8547 74.9015 62.3275 75.0549 62.3889C75.6072 62.6343 76.2209 62.7571 76.8346 62.7571C77.4482 62.7571 78.0619 62.6343 78.6142 62.3889C78.7983 62.2968 83.186 60.3331 87.6044 57.1114L87.6657 57.05C88.0339 56.7738 88.3714 56.5284 88.6783 56.2829C90.0897 55.209 91.317 54.1044 92.3603 53.0305C92.6364 52.7237 92.9432 52.4168 93.1887 52.1407C93.3114 52.0179 93.4035 51.8952 93.4955 51.7418L93.6183 51.5884C93.8637 51.2815 94.1092 51.0054 94.324 50.6986L94.416 50.5758C94.5388 50.4224 94.6615 50.2383 94.7842 50.0849C94.9683 49.8088 95.1524 49.5326 95.3365 49.2258C95.3365 49.2258 95.3672 49.1951 95.3672 49.1644C95.3979 49.103 95.4286 49.0417 95.4899 48.9496L95.5513 48.8576C95.7354 48.5507 95.8888 48.2746 96.0422 47.9371C97.0548 45.912 97.5764 43.8869 97.5764 41.8618V38.0264V36.615V19.1869C97.6071 17.53 96.5945 15.9652 95.0297 15.2594ZM92.6978 50.852C92.5444 51.0361 92.4216 51.1895 92.2682 51.3736C92.0227 51.6497 91.7466 51.9566 91.4704 52.2327C90.9488 52.7543 90.3965 53.276 89.8136 53.8283C89.3226 54.2578 88.8317 54.6567 88.3101 55.0863C88.1873 55.0249 88.0339 54.9942 87.9112 54.9328C86.6225 54.4419 85.5179 54.0124 84.2906 54.0124C82.695 54.0124 80.5472 54.534 80.4859 56.0681C80.2097 56.0068 79.9029 55.9454 79.6574 55.8533C78.6142 55.5772 77.7244 55.2397 76.9266 54.9022C75.6379 54.4112 74.5333 53.9817 73.306 53.9817C71.7105 53.9817 69.5626 54.5033 69.5013 56.0374C69.2251 55.9761 68.9183 55.9147 68.6728 55.8227C67.6296 55.5465 66.7398 55.209 65.942 54.8715C65.4204 54.6567 64.9295 54.4726 64.4385 54.3192C64.2544 54.1658 64.0703 54.0124 63.8862 53.8589C63.6715 53.6442 63.426 53.4601 63.2112 53.2453C62.7816 52.8464 62.3828 52.4475 61.9839 52.0179C61.9532 51.9873 61.9225 51.9566 61.8611 51.8952C61.8305 51.8645 61.7998 51.8338 61.7384 51.7725C61.5236 51.5577 61.3395 51.3429 61.1554 51.0974C61.0327 50.944 60.91 50.7906 60.7872 50.6679C60.7872 50.6679 60.7872 50.6372 60.7565 50.6372C60.7872 50.6372 60.7872 50.6372 60.8179 50.6679C62.2293 51.2202 63.8249 51.8338 65.5738 51.9873C65.5738 51.9873 66.0034 52.0179 66.2488 52.0179C66.8625 52.0179 67.3841 51.8338 67.6296 51.4656C67.8137 51.2202 67.8751 50.944 67.783 50.6679C67.7216 50.4531 67.5989 50.2997 67.4455 50.2076C67.2 50.0849 66.8318 50.0849 66.3102 50.2383C66.617 49.9929 67.108 49.686 68.0898 49.686C68.6421 49.686 69.2251 49.8088 69.8388 49.9929C70.4524 50.177 71.0968 50.4224 71.7718 50.6679C73.0912 51.1895 74.564 51.7418 76.1902 51.9566C76.3129 51.9566 76.4357 51.9873 76.5277 51.9873C76.5277 51.9873 76.9573 52.0179 77.2027 52.0179C77.3562 52.0179 77.4789 52.0179 77.6016 51.9873C78.0312 51.9259 78.3994 51.7418 78.5835 51.4656C78.7676 51.2202 78.829 50.944 78.7369 50.6679C78.6755 50.4531 78.5528 50.2997 78.3994 50.2076C78.2153 50.1156 77.9391 50.0849 77.5709 50.1463C77.4789 50.177 77.3562 50.177 77.2641 50.2383C77.3562 50.177 77.4482 50.0849 77.5709 50.0235C77.8778 49.8394 78.3073 49.686 79.0131 49.686C79.5654 49.686 80.1483 49.8088 80.762 49.9929C81.1609 50.1156 81.5598 50.2383 81.9586 50.3917L82.695 50.6679C84.1065 51.2202 85.702 51.8338 87.4509 51.9873C87.4509 51.9873 87.8805 52.0179 88.126 52.0179C88.7396 52.0179 89.2613 51.8338 89.5067 51.4656C89.6908 51.2202 89.7522 50.944 89.6601 50.6679C89.5988 50.4531 89.476 50.2997 89.3226 50.2076C89.0772 50.0849 88.709 50.0849 88.1873 50.2383C88.4942 49.9929 88.9851 49.686 89.9363 49.686C90.4886 49.686 91.0716 49.8088 91.6852 49.9929C92.0534 50.1156 92.4216 50.2383 92.8205 50.3917C92.9432 50.5758 92.8205 50.7293 92.6978 50.852ZM94.0478 49.0417C93.9558 49.1644 93.8637 49.3178 93.7717 49.4406C93.741 49.5019 93.6796 49.5633 93.6183 49.6247C92.3909 49.1644 91.317 48.7655 90.1204 48.7655C88.5249 48.7655 86.377 49.2871 86.3157 50.8213C86.0395 50.7599 85.7327 50.6986 85.4872 50.6065C84.444 50.3304 83.5542 49.9929 82.7564 49.6553C82.5109 49.5633 82.2962 49.4712 82.0507 49.3792C81.0382 49.011 80.1177 48.7348 79.1358 48.7348C78.6755 48.7348 78.1846 48.7655 77.6937 48.8883C77.1721 48.9803 76.6505 49.1644 76.2516 49.4099C75.73 49.7474 75.3618 50.177 75.3311 50.7906C75.0549 50.7293 74.7481 50.6679 74.5026 50.5758C73.4901 50.2997 72.6616 49.9929 71.8639 49.686C71.8332 49.686 71.8025 49.6553 71.7718 49.6553C70.4831 49.1644 69.3785 48.7348 68.1512 48.7348C66.5557 48.7348 64.4078 49.2565 64.3465 50.7906C64.0703 50.7293 63.7635 50.6679 63.518 50.5758C62.4748 50.2997 61.585 49.9622 60.7872 49.6247C60.419 49.5019 60.0815 49.3485 59.744 49.2258H59.7747C62.9657 47.6609 67.2307 46.495 72.048 45.9734C73.4287 45.8199 74.8401 45.7279 76.2823 45.6972C76.7732 45.6972 77.2334 45.6665 77.7244 45.6665H77.7857C79.1972 45.6665 80.6086 45.7279 81.9586 45.8506C86.6839 46.2188 90.9795 47.2314 94.324 48.6121C94.2319 48.7655 94.1399 48.8883 94.0478 49.0417ZM96.3491 36.6457C92.9432 35.1729 88.7396 33.3932 88.4328 33.3012C87.635 32.9944 86.9907 33.3932 86.9293 33.4239H86.8986C85.6406 34.3137 83.186 36.032 82.8485 36.2468C82.7564 36.3081 82.6337 36.2775 82.603 36.2775C82.5109 36.2468 82.02 36.0013 81.4984 35.7865L80.8234 18.5119C80.8234 18.4505 80.7927 18.3585 80.7313 18.3278L78.1232 15.7504C78.0619 15.689 78.0005 15.6583 77.9085 15.6583H77.6937C77.6016 15.6583 77.5403 15.689 77.4789 15.7504C77.4175 15.8117 77.3868 15.8731 77.3868 15.9652V16.4868H76.497V15.9652C76.497 15.8731 76.4664 15.8117 76.405 15.7504C76.3436 15.689 76.2823 15.6583 76.1902 15.6583H75.9754C75.8834 15.6583 75.822 15.689 75.7606 15.7504L73.1526 18.3278C73.0912 18.3891 73.0605 18.4505 73.0605 18.5119L72.4775 32.9637C70.5752 32.1966 69.1637 31.6443 68.8569 31.5216C67.7216 31.092 66.8011 31.5216 66.3716 31.8591L57.2893 38.4253V19.2176C57.2893 18.696 57.4428 18.1744 57.6882 17.7141C57.7496 17.5914 57.8416 17.4686 57.9337 17.3459C58.0564 17.1618 58.2098 17.0084 58.3939 16.855C58.4553 16.7936 58.5167 16.7629 58.578 16.7016C58.7621 16.5788 58.9462 16.4561 59.161 16.364C59.2224 16.3334 59.5292 16.2106 60.0508 15.9958C60.2349 15.9345 60.419 15.8424 60.6645 15.7811C61.4623 15.5049 62.5362 15.1367 63.8249 14.7685C64.1931 14.6765 64.5919 14.5537 64.9908 14.4617C65.3897 14.3696 65.8193 14.2469 66.2795 14.1549C67.3841 13.9094 68.6114 13.6639 69.9308 13.4798C72.0173 13.173 74.3492 12.9582 76.8346 12.9582C79.3199 12.9582 81.6211 13.173 83.7383 13.4798C84.7815 13.6332 85.7941 13.8173 86.7145 14.0014C87.1748 14.0935 87.635 14.2162 88.0646 14.3083C88.2794 14.3696 88.4942 14.4003 88.709 14.4617C89.1078 14.5537 89.5067 14.6765 89.8749 14.7685C90.2431 14.8606 90.6113 14.9833 90.9488 15.0753C91.4398 15.2288 91.9 15.3822 92.2989 15.5049C92.575 15.597 92.8205 15.689 93.0353 15.7811C93.2501 15.8731 93.4649 15.9345 93.649 15.9958C94.1706 16.2106 94.4774 16.3334 94.5388 16.364C94.6922 16.4254 94.8149 16.4868 94.9376 16.5788C94.999 16.6095 95.0604 16.6709 95.1217 16.7016C95.2445 16.7936 95.3672 16.8857 95.4593 17.0084C95.5206 17.0698 95.5513 17.1004 95.6127 17.1618C95.7047 17.2845 95.7968 17.3766 95.8888 17.53C95.9809 17.6527 96.0422 17.7755 96.1036 17.9289C96.1343 17.9903 96.165 18.0516 96.1957 18.1437C96.257 18.2971 96.2877 18.4198 96.3184 18.5732C96.3798 18.788 96.3798 19.0028 96.3798 19.2483L96.3491 36.6457Z" fill="white"/>
<path d="M86.0691 55.2711C85.4554 55.087 84.8724 54.9643 84.3201 54.9643C83.3383 54.9643 82.878 55.2711 82.5405 55.5166C83.0621 55.3632 83.4303 55.3632 83.6758 55.4859C83.8599 55.5779 83.9519 55.7314 84.0133 55.9461C84.0747 56.253 84.044 56.5291 83.8599 56.7439C83.5837 57.0814 83.0928 57.2962 82.4791 57.2962C82.203 57.2962 81.7734 57.2655 81.8041 57.2655C80.0552 57.1121 78.4596 56.4984 77.0482 55.9461C76.3732 55.7007 75.7288 55.4245 75.1152 55.2404C74.5015 55.0563 73.9185 54.9336 73.3662 54.9336C72.3844 54.9336 71.9241 55.2404 71.5866 55.4859C72.1082 55.3325 72.4764 55.3325 72.7219 55.4552C72.906 55.5473 72.998 55.7007 73.0594 55.9155C73.1208 56.2223 73.0901 56.4984 72.906 56.7132C72.6298 57.0507 72.1389 57.2655 71.5252 57.2655C71.2491 57.2655 70.8195 57.2348 70.8502 57.2348C69.5001 57.1121 68.2421 56.7132 67.0762 56.2837C67.2296 56.4064 67.383 56.4984 67.5671 56.6212C67.9353 56.8666 68.3035 57.1121 68.641 57.3576C69.6536 58.0326 70.6354 58.6156 71.5559 59.1372C71.74 59.2599 71.9548 59.352 72.1389 59.4747C72.5071 59.6895 72.8753 59.8736 73.2128 60.0577C73.3662 60.1497 73.5503 60.2418 73.6731 60.3032C73.8265 60.3952 73.9799 60.4566 74.1026 60.5179C74.2254 60.5793 74.3788 60.6407 74.5015 60.702C74.6856 60.7941 74.839 60.8555 74.9924 60.9475C75.3606 61.1316 75.6061 61.2237 75.6368 61.2543C76.0357 61.4384 76.4652 61.5305 76.9255 61.5305C77.1403 61.5305 77.3551 61.4998 77.5698 61.4691C77.7846 61.4384 77.9994 61.3464 78.1835 61.2543C78.1835 61.2543 78.2142 61.2237 78.2755 61.2237C78.3062 61.2237 78.3369 61.193 78.3983 61.1623C78.429 61.1623 78.4596 61.1316 78.4903 61.1009C78.521 61.0702 78.5824 61.0702 78.6131 61.0396C78.7358 60.9782 78.8585 60.9168 79.0119 60.8555C79.8711 60.4259 81.3132 59.6895 83.0314 58.6769C83.6451 58.3087 84.2895 57.9099 84.9338 57.4803C85.3327 57.2348 85.7316 56.9587 86.1304 56.6825C86.4066 56.4984 86.6827 56.3143 86.9282 56.0996C86.9589 56.0689 86.9896 56.0689 87.0203 56.0382L87.4805 55.67C86.9589 55.5779 86.5293 55.4245 86.0691 55.2711Z" fill="#1C2854"/>
<path d="M96.3485 38.0576C92.5438 36.4007 88.2481 34.5904 87.972 34.4677C87.8185 34.4063 87.6958 34.4677 87.6344 34.4677C87.2969 34.7132 83.9831 37.0451 83.5843 37.2906C82.9399 37.7201 82.2649 37.4747 82.1421 37.4133C82.1115 37.4133 81.866 37.2292 81.5898 37.0758L81.8967 44.5011C86.7753 44.8693 91.3471 45.8819 94.9677 47.416C95.1825 46.9558 95.3973 46.4955 95.5814 46.0353C95.7655 45.575 95.8882 45.1148 96.011 44.6545C96.0723 44.4091 96.1337 44.1943 96.1644 43.9488C96.2871 43.2431 96.3485 42.5681 96.3485 41.8624V38.0576Z" fill="#1C2854"/>
<path d="M61.0933 47.2318C61.216 47.1704 61.3388 47.1398 61.4922 47.0784C64.5605 45.9124 68.2118 45.084 72.1086 44.6544L72.5075 34.2835C70.3903 33.4244 68.7334 32.78 68.4266 32.6573C67.8129 32.4118 67.3834 32.7187 67.3527 32.78L67.2913 32.8107L57.2886 40.0519V41.8929C57.2886 42.6907 57.3806 43.4578 57.534 44.2555C57.5954 44.501 57.6568 44.7772 57.7181 45.0226C57.7488 45.1454 57.7795 45.2681 57.8409 45.4215C57.9329 45.667 58.025 45.9431 58.117 46.1886C58.2091 46.4341 58.3318 46.7102 58.4545 46.9557C58.5773 47.2011 58.7 47.4773 58.8534 47.7227C58.9148 47.8455 58.9762 47.9682 59.0682 48.0909C59.6512 47.8148 60.2648 47.5386 60.9092 47.2625C60.9706 47.2932 61.0319 47.2625 61.0933 47.2318Z" fill="#1C2854"/>
<path d="M76.5578 44.3781H77.7238V24.7101H79.8103V23.2987H77.7238V17.5303H76.2817V23.2987H74.1646V24.7101H76.251V44.3781C76.2817 44.4088 76.4658 44.3781 76.5578 44.3781Z" fill="#1C2854"/>
<path d="M91.8984 50.0546C91.2848 49.8705 90.7018 49.7478 90.1495 49.7478C89.1676 49.7478 88.7074 50.0546 88.4005 50.3001C88.9221 50.1467 89.2903 50.1467 89.5358 50.2694C89.7199 50.3615 89.812 50.5149 89.8733 50.7297C89.9347 51.0365 89.904 51.3127 89.7199 51.5274C89.4438 51.865 88.9528 52.0797 88.3392 52.0797C88.063 52.0797 87.6334 52.049 87.6641 52.049C85.9152 51.8956 84.3197 51.282 82.9082 50.7297C82.6628 50.6376 82.4173 50.5456 82.1718 50.4535C81.773 50.3001 81.3741 50.1467 80.9752 50.0546C80.3615 49.8705 79.7785 49.7478 79.2262 49.7478C79.1649 49.7478 79.0728 49.7478 79.0115 49.7478C78.9808 49.7478 78.9808 49.7478 78.9501 49.7478C78.8887 49.7478 78.8274 49.7478 78.7967 49.7478H78.766C78.7046 49.7478 78.6433 49.7785 78.5819 49.7785H78.5512C78.4898 49.7785 78.4592 49.8092 78.3978 49.8092H78.3671C78.3057 49.8092 78.2751 49.8399 78.2137 49.8399C78.1523 49.8705 78.1216 49.8705 78.091 49.9012C78.091 49.9012 78.091 49.9012 78.0603 49.9012C77.9682 49.9319 77.8762 49.9933 77.8148 50.024C77.6921 50.0853 77.6 50.1774 77.508 50.2387C77.6307 50.2081 77.7228 50.1774 77.8148 50.1467C77.8455 50.1467 77.8762 50.1467 77.9375 50.116H77.9682H78.0603H78.091H78.2137H78.2751H78.3364H78.3978H78.4285C78.4592 50.116 78.4898 50.116 78.4898 50.1467H78.5205C78.5512 50.1467 78.5819 50.1774 78.6126 50.1774C78.7967 50.2694 78.8887 50.4228 78.9501 50.6376C79.0115 50.9445 78.9808 51.2206 78.7967 51.4354C78.5819 51.7115 78.2444 51.865 77.8148 51.957C77.6921 51.9877 77.5387 51.9877 77.4159 51.9877C77.1398 51.9877 76.7102 51.957 76.7409 51.957C76.6182 51.957 76.4954 51.9263 76.4034 51.9263C74.8079 51.7115 73.3351 51.1592 71.985 50.6376C71.31 50.3922 70.6656 50.1467 70.052 49.9626C69.4383 49.7785 68.8553 49.6558 68.303 49.6558C67.3212 49.6558 66.8609 49.9626 66.5234 50.2081C67.045 50.0546 67.4132 50.0546 67.6587 50.1774C67.8428 50.2694 67.9348 50.4228 67.9962 50.6376C68.0576 50.9445 68.0269 51.2206 67.8428 51.4354C67.5666 51.7729 67.0757 51.9877 66.462 51.9877C66.1859 51.9877 65.7563 51.957 65.787 51.957C64.038 51.8036 62.4425 51.1899 61.0311 50.6376C61.0004 50.6376 61.0004 50.6376 60.9697 50.6069C60.9697 50.6069 60.9697 50.6376 61.0004 50.6376C61.1231 50.791 61.2459 50.9445 61.3686 51.0672C61.5527 51.282 61.7675 51.5274 61.9516 51.7422C61.9823 51.7729 62.013 51.8036 62.0743 51.865C62.105 51.8956 62.1664 51.9263 62.1971 51.9877C62.5959 52.3866 62.9948 52.8161 63.4244 53.215C63.6392 53.4298 63.8539 53.6139 64.0994 53.8287L64.6517 54.2889C65.1426 54.4423 65.6336 54.6264 66.1552 54.8412C66.953 55.1481 67.8428 55.4856 68.886 55.7924C69.1621 55.8538 69.4383 55.9458 69.7144 56.0072C69.7451 54.473 71.893 53.9514 73.5192 53.9514C74.7465 53.9514 75.8511 54.381 77.1398 54.8719C77.9375 55.1787 78.8274 55.5163 79.8706 55.8231C80.1467 55.8845 80.4229 55.9765 80.699 56.0379C80.7297 54.5037 82.8775 53.9821 84.5038 53.9821C85.7311 53.9821 86.8357 54.4117 88.1244 54.9026C88.2471 54.964 88.3698 54.9946 88.5233 55.056C89.0449 54.6264 89.5358 54.2276 90.0267 53.798C90.6097 53.2764 91.162 52.7548 91.6836 52.2025C91.9598 51.9263 92.2359 51.6195 92.4814 51.3433C92.6348 51.1899 92.7575 51.0058 92.911 50.8217C93.0337 50.6683 93.1257 50.5456 93.2485 50.3922C92.6655 50.3001 92.2666 50.1467 91.8984 50.0546Z" fill="#1C2854"/>
<path d="M122.208 101.655V91.4895L120.602 91.1538V90.2427H129.808V93.5993H128.73L128.298 91.4415H125.828L124.222 91.5854V95.9009H126.979L127.315 94.6782H128.202V98.3225H127.315L126.979 97.0518H124.222V101.583C124.726 101.679 125.301 101.727 125.972 101.727H128.466L128.945 99.5452H130V102.95H120.626V102.039L122.208 101.655ZM106.912 102.926V102.015L108.35 101.679V91.4655L107.08 91.2017V90.2427H110.412L116.262 99.5212L116.478 99.8809H116.622V91.4895L115.207 91.1538V90.2427H119.451V91.1538L118.012 91.4895V102.926H116.046L110.101 93.5753L109.909 93.2397H109.765V101.703L111.203 102.039V102.95H106.912V102.926ZM100.534 101.991L102.117 101.679V91.5134L100.534 91.2017V90.2667H105.737V91.2017L104.155 91.5134V101.679L105.737 101.991V102.926H100.534V101.991ZM95.6913 101.247C96.3386 100.888 96.8181 100.312 97.1298 99.5212C97.4175 98.7301 97.5614 97.6512 97.5614 96.2845C97.5614 94.5583 97.2017 93.3356 96.4585 92.5923C95.7153 91.8491 94.6124 91.4655 93.1259 91.4655C92.5265 91.4655 91.9991 91.4895 91.4956 91.5614V101.607C91.8792 101.703 92.3827 101.751 92.9821 101.751C94.1329 101.775 95.02 101.583 95.6913 101.247ZM87.8753 101.991L89.4816 101.631V91.4895L87.8753 91.1298V90.2188H93.7733C95.7393 90.2188 97.2497 90.7462 98.3286 91.7772C99.3835 92.8081 99.911 94.3186 99.911 96.2845C99.911 98.4184 99.3356 100.049 98.1847 101.176C97.0339 102.326 95.3796 102.878 93.2458 102.878H87.8753V101.991ZM80.8744 96.4284C81.7376 96.4284 82.4568 96.1886 82.9843 95.7091C83.5117 95.2296 83.7755 94.5823 83.7755 93.7431C83.7755 92.88 83.5357 92.2806 83.0802 91.945C82.6246 91.6333 82.0013 91.4655 81.2341 91.4655C80.8025 91.4655 80.323 91.4895 79.8195 91.5374V96.4284H80.8744ZM76.2232 101.991L77.8295 101.631V91.4655L76.2232 91.1298V90.2188H81.7615C83.0562 90.2188 84.0872 90.4825 84.8304 91.0099C85.5736 91.5374 85.9333 92.3526 85.9333 93.5034C85.9333 94.5104 85.6935 95.3016 85.19 95.853C84.7105 96.4044 84.0392 96.86 83.224 97.2196L85.8613 101.631L87.2279 101.991V102.902H84.9263C84.4228 102.902 84.0632 102.71 83.8234 102.302L81.258 97.6272H79.8195V101.631L81.4259 101.991V102.902H76.1992L76.2232 101.991ZM44.6714 101.991L46.2778 101.631V91.4655L44.6714 91.1298V90.2188H49.7303C51.2887 90.2188 52.4875 90.4825 53.3266 90.986C54.1657 91.4895 54.5733 92.3526 54.5733 93.5513C54.5733 94.9179 54.1418 95.9729 53.3026 96.6921C52.4635 97.4114 51.3366 97.795 49.9221 97.795C49.7782 97.795 49.5385 97.771 49.2268 97.7471L49.1309 96.9319C50.2338 96.9079 51.0729 96.6682 51.6004 96.2126C52.1518 95.7571 52.4155 95.0138 52.4155 93.9589C52.4155 92.2806 51.5045 91.4415 49.7063 91.4415C49.3946 91.4415 49.1069 91.4415 48.8432 91.4655C48.5555 91.4895 48.3876 91.5134 48.3157 91.5134V101.559L50.3057 101.919V102.878H44.6954V101.991H44.6714ZM67.0166 101.655V91.4895L65.4102 91.1538V90.2427H74.6168V93.5993H73.5379L73.1064 91.4415H70.6369L69.0305 91.5854V95.9009H71.7877L72.1234 94.6782H73.0105V98.3225H72.1234L71.7877 97.0518H69.0305V101.583C69.534 101.679 70.1094 101.727 70.7808 101.727H73.2742L73.7537 99.5452H74.8086V102.95H65.4342V102.039L67.0166 101.655ZM55.0528 101.991L56.6592 101.631V91.4655L55.0528 91.1298V90.2188H60.1117C61.6701 90.2188 62.8688 90.4825 63.708 90.986C64.5471 91.4895 64.9547 92.3526 64.9547 93.5513C64.9547 94.9179 64.5231 95.9729 63.684 96.6921C62.8449 97.4114 61.718 97.795 60.3035 97.795C60.1596 97.795 59.9199 97.771 59.6082 97.7471L59.5123 96.9319C60.6151 96.9079 61.4543 96.6682 61.9817 96.2126C62.5332 95.7571 62.7969 95.0138 62.7969 93.9589C62.7969 92.2806 61.8858 91.4415 60.0877 91.4415C59.776 91.4415 59.4883 91.4415 59.2246 91.4655C58.9369 91.4895 58.769 91.5134 58.6971 91.5134V101.559L60.6871 101.919V102.878H55.0768V101.991H55.0528ZM35.4169 101.655V91.4895L33.8105 91.1538V90.2427H43.0171V93.5993H41.9382L41.5067 91.4415H39.0372L37.4308 91.5854V95.9009H40.188L40.5237 94.6782H41.4108V98.3225H40.5237L40.188 97.0518H37.4548V101.583C37.9583 101.679 38.5337 101.727 39.205 101.727H41.6985L42.178 99.5452H43.2329V102.95H33.8585V102.039L35.4169 101.655ZM23.4531 101.991L25.0595 101.631V91.4655L23.4531 91.1298V90.2188H28.512C30.0704 90.2188 31.2691 90.4825 32.1083 90.986C32.9474 91.4895 33.355 92.3526 33.355 93.5513C33.355 94.9179 32.9234 95.9729 32.0843 96.6921C31.2452 97.4114 30.1183 97.795 28.7038 97.795C28.5599 97.795 28.3202 97.771 28.0085 97.7471L27.9126 96.9319C29.0154 96.9079 29.8546 96.6682 30.382 96.2126C30.9335 95.7571 31.1972 95.0138 31.1972 93.9589C31.1972 92.2806 30.2861 91.4415 28.488 91.4415C28.1763 91.4415 27.8886 91.4415 27.6249 91.4655C27.3372 91.4895 27.1693 91.5134 27.0974 91.5134V101.559L29.0874 101.919V102.878H23.4771V101.991H23.4531Z" fill="white"/>
<path d="M59.794 119.581V109.802H67.1694V112.122H62.2939V113.614H66.3131V115.824H62.2939V117.274H67.1694V119.581H59.794ZM67.4858 119.581L71.4083 109.802H73.9497L77.8307 119.581H75.1375L74.6541 118.199H70.6625L70.1653 119.581H67.4858ZM71.4498 115.948H73.8668L72.679 112.592L71.4498 115.948ZM80.0469 119.581V112.122H77.1464V109.802H85.461V112.122H82.5468V119.581H80.0469ZM90.123 119.691C89.4048 119.691 88.7372 119.571 88.1203 119.332C87.5126 119.093 87.0108 118.72 86.6149 118.213C86.2281 117.707 85.9933 117.062 85.9105 116.28H88.4242C88.4886 116.537 88.6083 116.749 88.7833 116.915C88.9582 117.071 89.1746 117.187 89.4324 117.26C89.6995 117.334 89.9849 117.371 90.2888 117.371C90.4729 117.371 90.6617 117.352 90.855 117.315C91.0484 117.279 91.2095 117.21 91.3384 117.108C91.4766 117.007 91.5456 116.86 91.5456 116.666C91.5456 116.528 91.5042 116.418 91.4213 116.335C91.3477 116.243 91.2372 116.169 91.0898 116.114C90.9517 116.049 90.7768 115.994 90.565 115.948C90.4821 115.93 90.3946 115.911 90.3026 115.893C90.2197 115.874 90.1368 115.856 90.054 115.838C89.9711 115.819 89.8836 115.801 89.7915 115.782C89.3219 115.681 88.8708 115.566 88.438 115.437C88.0052 115.299 87.6231 115.119 87.2916 114.898C86.9601 114.677 86.6977 114.383 86.5044 114.014C86.311 113.646 86.2143 113.181 86.2143 112.619C86.2143 112.104 86.3064 111.671 86.4906 111.321C86.6747 110.962 86.9187 110.677 87.2226 110.465C87.5264 110.244 87.8579 110.078 88.217 109.968C88.5761 109.857 88.9306 109.783 89.2805 109.747C89.6304 109.701 89.9435 109.678 90.2197 109.678C90.9011 109.678 91.4996 109.807 92.0152 110.064C92.5309 110.313 92.9452 110.681 93.2583 111.169C93.5805 111.657 93.7739 112.247 93.8384 112.937H91.4213C91.3937 112.735 91.3108 112.564 91.1727 112.426C91.0346 112.279 90.855 112.168 90.634 112.095C90.4223 112.012 90.1737 111.97 89.8882 111.97C89.7225 111.97 89.5659 111.984 89.4186 112.012C89.2713 112.039 89.1424 112.081 89.0319 112.136C88.9306 112.191 88.8477 112.26 88.7833 112.343C88.7188 112.426 88.6866 112.523 88.6866 112.633C88.6866 112.781 88.7419 112.905 88.8523 113.006C88.972 113.108 89.1424 113.195 89.3634 113.269C89.5936 113.342 89.8744 113.421 90.2059 113.503C90.3624 113.54 90.5143 113.577 90.6617 113.614C90.809 113.642 90.9563 113.674 91.1036 113.711C91.5088 113.803 91.8863 113.909 92.2362 114.028C92.5953 114.148 92.9084 114.305 93.1754 114.498C93.4516 114.691 93.668 114.954 93.8245 115.285C93.9811 115.607 94.0593 116.022 94.0593 116.528C94.0593 117.108 93.9488 117.601 93.7279 118.006C93.5069 118.402 93.2076 118.724 92.8301 118.973C92.4526 119.221 92.029 119.406 91.5594 119.525C91.0898 119.636 90.611 119.691 90.123 119.691Z" fill="white"/>
</svg>
